<?xml version="1.0" encoding="utf-8"?>
<!-- Generator: Adobe Illustrator 25.1.0, SVG Export Plug-In . SVG Version: 6.00 Build 0)  -->
<svg version="1.1" id="Layer_1" xmlns="http://www.w3.org/2000/svg" xmlns:xlink="http://www.w3.org/1999/xlink" x="0px" y="0px"
	 viewBox="0 0 64 64" style="enable-background:new 0 0 64 64;" xml:space="preserve">
<style type="text/css">
	.st0{fill:#757577;}
</style>
<polygon class="st0" points="54.7,25 53.1,20.3 59.4,14 50,4.6 43.7,10.9 39,9.3 39,0 25,0 25,9.3 20.3,10.9 14,4.6 4.6,14 
	10.9,20.3 9.3,25 0,25 0,39 9.3,39 10.9,43.7 4.6,50 14,59.4 20.3,53.1 25,54.7 25,64 31.4,64 31.4,62 27,62 27,53.3 19.7,50.9 
	14,56.6 7.4,50 13.1,44.3 10.7,37 2,37 2,27 10.7,27 13.1,19.7 7.4,14 14,7.4 19.7,13.1 27,10.7 27,2 37,2 37,10.7 44.3,13.1 
	50,7.4 56.6,14 50.9,19.7 53.3,27 62,27 62,32.1 64,32.1 64,25 "/>
<path class="st0" d="M32,25c-3.9,0-7,3.1-7,7c0,3.9,3.1,7,7,7c3.9,0,7-3.1,7-7C39,28.1,35.9,25,32,25z M32,37c-2.8,0-5-2.2-5-5
	s2.2-5,5-5s5,2.2,5,5S34.8,37,32,37z"/>
<g>
	<path class="st0" d="M61.9,42.1v6.3H40.3v-6.3H61.9 M64,40H38.2v10.5H64V40L64,40z"/>
</g>
<g>
	<path class="st0" d="M61.9,55.6v6.3H40.3v-6.3H61.9 M64,53.5H38.2V64H64V53.5L64,53.5z"/>
</g>
</svg>
